<svg xmlns="http://www.w3.org/2000/svg" width="108" height="108" viewBox="0 0 108 108">
<path d="M24.00,0.00 L84.00,0.00 Q108.00,0.00 108.00,24.00 L108.00,84.00 Q108.00,108.00 84.00,108.00 L24.00,108.00 Q0.00,108.00 0.00,84.00 L0.00,24.00 Q0.00,0.00 24.00,0.00 Z" fill="#FFB12E"/>
<path d="M61.8,52.2 L85.0,39.5 L85.0,85.9 L61.8,73.1 Z" fill="#FFF4CF" opacity="0.65"/>
<path d="M65.9,59.2 L82.1,51.1" stroke="#FBE49A" stroke-width="1.7" stroke-linecap="round" fill="none"/>
<path d="M65.9,66.2 L82.1,75.4" stroke="#FBE49A" stroke-width="1.7" stroke-linecap="round" fill="none"/>
<path d="M24.10,58.60 L25.20,58.60 Q26.40,58.60 26.40,59.80 L26.40,65.50 Q26.40,66.70 25.20,66.70 L24.10,66.70 Q22.90,66.70 22.90,65.50 L22.90,59.80 Q22.90,58.60 24.10,58.60 Z" fill="#20243F"/>
<path d="M29.30,56.30 L49.00,56.30 Q51.90,56.30 51.90,59.20 L51.90,66.20 Q51.90,69.10 49.00,69.10 L29.30,69.10 Q26.40,69.10 26.40,66.20 L26.40,59.20 Q26.40,56.30 29.30,56.30 Z" fill="#20243F"/>
<path d="M35.70,54.00 L40.30,54.00 Q41.50,54.00 41.50,55.20 L41.50,55.70 Q41.50,56.90 40.30,56.90 L35.70,56.90 Q34.50,56.90 34.50,55.70 L34.50,55.20 Q34.50,54.00 35.70,54.00 Z" fill="#20243F"/>
<path d="M51.9,54.0 L60.1,49.9 L60.1,75.4 L51.9,71.4 Z" fill="#20243F"/>
<path d="M60.50,51.10 L60.80,51.10 Q61.80,51.10 61.80,52.10 L61.80,73.30 Q61.80,74.30 60.80,74.30 L60.50,74.30 Q59.50,74.30 59.50,73.30 L59.50,52.10 Q59.50,51.10 60.50,51.10 Z" fill="#FFE9A8"/>
<path d="M38.6,22.1 L47.3,27.9 L56.0,22.1" stroke="#20243F" stroke-width="4.1" stroke-linecap="round" stroke-linejoin="round" fill="none"/>
<path d="M38.6,29.0 L47.3,34.8 L56.0,29.0" stroke="#20243F" stroke-width="4.1" stroke-linecap="round" stroke-linejoin="round" fill="none"/>
</svg>